<svg width="373" height="288" viewBox="0 0 373 288" fill="none" xmlns="http://www.w3.org/2000/svg">
<path d="M151.626 237.461L114.164 281.362C111.433 284.563 106.341 284.031 104.33 280.335L86.875 248.25L76.0625 228.375L59.5 197.676L26.8464 137.876C24.6631 133.877 27.5569 129 32.1125 129L301.292 129C305.752 129 308.653 133.694 306.658 137.683L285.192 180.617C284.738 181.524 284.062 182.302 283.226 182.877L271.75 190.771L234.696 216.262C233.91 216.802 233.264 217.523 232.812 218.363L210.048 260.685C208.4 263.749 204.501 264.774 201.56 262.916L159.394 236.283C156.872 234.69 153.563 235.192 151.626 237.461Z" fill="#81A1C1"/>
<path d="M151.216 55.3151L112.142 24.6435C109.566 22.6215 105.844 23.0385 103.78 25.5805L85.875 47.625L75.0625 60.9375L58.5 81.5L28.9819 117.709C25.7867 121.628 28.5756 127.5 33.6324 127.5L298.034 127.5C302.972 127.5 305.796 121.868 302.842 117.911L284.412 93.222C283.814 92.4201 283.024 91.7806 282.115 91.3618L233.783 69.0911C232.939 68.7024 232.197 68.123 231.616 67.3986L208.84 39.036C207.159 36.9439 204.295 36.2215 201.823 37.267L157.259 56.1212C155.248 56.9719 152.934 56.6632 151.216 55.3151Z" fill="#D8DEE9"/>
<path d="M234 78L277.648 98.3691C278.536 98.7834 279.309 99.4088 279.899 100.191L297.5 123.5" stroke="#8FBCBB" stroke-width="10" stroke-linecap="round" stroke-linejoin="round"/>
<path d="M59 82.5L75.5625 61.9375L86.375 48.625L104.28 26.5805C106.344 24.0385 110.066 23.6215 112.642 25.6435L151.716 56.3151C153.434 57.6632 155.748 57.9719 157.759 57.1212L202.323 38.267C204.795 37.2215 207.659 37.9439 209.34 40.036L232.116 68.3986C232.697 69.123 233.439 69.7024 234.283 70.0911L282.615 92.3618C283.524 92.7806 284.314 93.4201 284.912 94.222L303.342 118.911C306.296 122.868 303.472 128.5 298.534 128.5L34.0133 128.5C28.9771 128.5 26.1817 122.67 29.335 118.743L48 95.5" stroke="#2E3440" stroke-width="6" stroke-linecap="round"/>
<path d="M246.25 208.313L234.696 216.262C233.91 216.802 233.264 217.523 232.812 218.363L210.048 260.685C208.4 263.749 204.501 264.774 201.56 262.916L159.394 236.283C156.872 234.69 153.563 235.192 151.626 237.461L114.164 281.362C111.433 284.563 106.341 284.031 104.33 280.334L86.875 248.25L76.0625 228.375L59.5 197.676L26.8464 137.876C24.6631 133.877 27.5569 129 32.1125 129L301.292 129C305.752 129 308.653 133.694 306.658 137.683L285.192 180.617C284.738 181.524 284.062 182.302 283.226 182.877L271.75 190.771" stroke="#2E3440" stroke-width="6" stroke-linecap="round"/>
<path d="M331.5 129H3" stroke="#2E3440" stroke-width="6" stroke-linecap="round"/>
<path fill-rule="evenodd" clip-rule="evenodd" d="M170.577 26.5739C174.886 21.1415 185.104 17.2926 197.084 17.1784C200.932 14.8643 204.795 12.898 208.557 11.2951C211.418 6.64937 220.732 3.2448 231.781 3.2448C245.107 3.2448 255.91 8.19779 255.91 14.3076C255.91 18.9859 249.577 22.9859 240.626 24.6035C236.396 32.399 227.384 41.2556 215.532 48.443C214.024 49.3576 212.513 50.2189 211.007 51.0259C211.142 55.0211 211.046 59.2512 210.69 63.617C209.945 72.7548 208.174 81.1214 205.776 87.8595C206 88.9819 206.21 90.1239 206.403 91.2828C209.491 109.808 207.208 125.627 201.305 126.615C196.044 127.495 189.683 116.302 186.175 100.745C185.978 100.49 185.784 100.223 185.594 99.9429C184.182 114.766 179.03 125.755 172.889 125.755C169.332 125.755 166.106 122.066 163.747 116.081C158.072 122.705 149.074 126.984 138.945 126.984C137.026 126.984 135.148 126.831 133.325 126.537C131.658 127.096 129.909 127.394 128.107 127.394C116.701 127.394 107.454 115.47 107.454 100.761C107.454 94.92 108.912 89.5179 111.385 85.1273C112.083 80.7961 114.205 76.9181 117.275 73.9506C118.365 63.0332 133.424 46.7882 155.172 34.2365C160.368 31.2375 165.555 28.6751 170.577 26.5739Z" fill="#FFF2DA"/>
<path d="M255.52 5.60477L249.646 3.98096C246.824 1.44193 243.098 0 239.295 0H226.346C224.391 0 222.45 0.252497 220.557 0.743431C214.862 -1.56787 209.075 1.95242 208.002 7.37562L202.189 11.0567C198.769 13.221 194.824 14.3673 190.775 14.3673H186.579C178.643 14.3673 171.104 17.8032 165.886 23.7916L160.934 29.4802L151.473 33.1698C139.183 37.8358 128.908 46.6515 122.37 56.347L112.271 71.179C107.511 78.2495 105 86.5095 105 95.0687C105 98.202 105.229 101.351 105.68 104.425C105.876 105.758 107.146 107.267 109.144 107.005C110.811 106.788 111.962 105.202 111.718 103.536C111.31 100.754 111.102 97.9052 111.102 95.0687C111.102 87.7322 113.256 80.6525 117.33 74.5965C117.333 74.5935 127.411 59.7921 127.411 59.7921C133.888 50.2825 142.972 43.0466 153.684 38.8678L163.845 34.9061C164.309 34.7258 164.712 34.4415 165.038 34.0655L170.484 27.8111C174.543 23.1527 180.41 20.481 186.579 20.481H190.775C195.977 20.481 201.051 19.0076 205.451 16.2225L209.133 13.8898C210.736 16.5548 213.653 18.3412 216.978 18.3412C218.663 18.3412 220.03 16.9724 220.03 15.2844C220.03 13.5964 218.663 12.2275 216.978 12.2275C215.296 12.2275 213.927 10.8562 213.927 9.17062C213.927 7.48506 215.296 6.11374 216.978 6.11374C218.241 6.11374 219.388 6.90792 219.834 8.09001C220.43 9.66888 222.191 10.4652 223.768 9.86789C225.282 9.29381 226.071 7.6431 225.602 6.11374H239.294C241.77 6.11374 244.191 7.12221 245.937 8.88082C246.311 9.25774 246.777 9.53071 247.289 9.67194L253.898 11.4984V14.6742C253.898 18.0062 251.77 20.9301 248.604 21.9496L241.32 24.296C240.923 24.4241 240.556 24.6323 240.243 24.9077L193.629 65.8499C193.256 66.1767 192.969 66.5897 192.792 67.0525L184.856 87.7506C182.586 93.6726 181.057 99.8705 180.313 106.172L178.338 122.886H173.479C169.981 122.886 166.735 120.831 165.209 117.651C155.344 97.0908 159.54 72.4341 175.648 56.296C176.839 55.1023 176.839 53.1666 175.648 51.9726C174.456 50.7792 172.525 50.7792 171.333 51.9726C163.997 59.3217 158.882 68.2575 156.147 77.8188C154.685 74.9942 152.827 72.491 150.613 70.43C145.92 66.0621 140.032 64.0081 133.578 64.489C131.898 64.6143 130.637 66.081 130.762 67.7647C130.888 69.4485 132.348 70.7073 134.032 70.5859C138.748 70.2344 143.043 71.7289 146.46 74.9093C151.142 79.2671 153.826 86.2912 153.82 94.1807C153.821 94.181 153.822 94.1816 153.823 94.1816C153.807 98.6657 154.292 103.168 155.294 107.602H145.581C143.896 107.602 142.53 108.97 142.53 110.658C142.53 112.346 143.896 113.715 145.581 113.715H157.018C157.621 115.482 158.311 117.23 159.086 118.955C157.679 121.377 155.107 122.886 152.248 122.886H124.784C123.434 122.886 122.858 122.65 122.282 122.65C120.82 122.65 119.56 123.696 119.289 125.139C118.974 126.796 120.067 128.397 121.717 128.712C122.727 128.902 123.758 128.999 124.784 128.999H152.238C155.113 128.996 159.203 128.092 162.608 124.414C165.442 127.288 169.354 128.999 173.479 128.999H181.05C182.596 128.999 183.898 127.84 184.08 126.302L185.246 116.428C185.697 117.642 186.186 118.843 186.718 120.031C189.153 125.479 194.607 129 200.611 129H207.957C210.049 129 211.156 127.176 210.988 125.592L209.696 114.395C208.919 107.664 209.116 100.866 210.283 94.1911L217.477 53.0343L243.79 29.9225L250.472 27.7702C256.171 25.9345 260 20.6718 260 14.6742V11.4984C260 8.75702 258.158 6.33353 255.52 5.60477V5.60477ZM115.273 117.245C115.273 118.934 113.906 120.303 112.22 120.303C110.534 120.303 109.168 118.934 109.168 117.245C109.168 115.556 110.534 114.186 112.22 114.186C113.906 114.186 115.273 115.556 115.273 117.245ZM204.272 93.1368C203.004 100.392 202.789 107.781 203.634 115.097L204.533 122.886H200.611C197.008 122.886 193.74 120.785 192.286 117.532C189.69 111.725 188.16 105.553 187.73 99.1802C188.671 93.5106 198.217 69.9495 198.217 69.9495L210.157 59.4626L204.272 93.1368Z" fill="#2E3440"/>
<ellipse cx="238.734" cy="11.0297" rx="1.63588" ry="1.63894" fill="#2E3440"/>
<path d="M5 195H22" stroke="#2E3440" stroke-width="6" stroke-linecap="round"/>
<path d="M20 279H57" stroke="#2E3440" stroke-width="6" stroke-linecap="round"/>
<path d="M136 255.367L163 223" stroke="#2E3440" stroke-width="5" stroke-linecap="round"/>
<path d="M218 227L243 210" stroke="#2E3440" stroke-width="5" stroke-linecap="round"/>
<path d="M348 212H370" stroke="#2E3440" stroke-width="6" stroke-linecap="round"/>
<path d="M260 252H291" stroke="#2E3440" stroke-width="6" stroke-linecap="round"/>
</svg>
